<?xml version="1.0" encoding="UTF-8" standalone="no"?>
<!DOCTYPE svg PUBLIC "-//W3C//DTD SVG 1.1//EN"
 "http://www.w3.org/Graphics/SVG/1.1/DTD/svg11.dtd">
<!-- Generated by graphviz version 2.40.1 (20161225.0304)
 -->
<!-- Title: g Pages: 1 -->
<svg width="718pt" height="260pt"
 viewBox="0.00 0.00 718.42 260.00" xmlns="http://www.w3.org/2000/svg" xmlns:xlink="http://www.w3.org/1999/xlink">
<g id="graph0" class="graph" transform="scale(1 1) rotate(0) translate(4 256)">
<title>g</title>
<polygon fill="#ffffff" stroke="transparent" points="-4,4 -4,-256 714.4193,-256 714.4193,4 -4,4"/>
<!-- n04e222f549be40fcccfdb65a1b9ecf79 -->
<g id="node1" class="node">
<title>n04e222f549be40fcccfdb65a1b9ecf79</title>
<ellipse fill="none" stroke="#000000" cx="341.8858" cy="-234" rx="147.5738" ry="18"/>
<text text-anchor="start" x="236.3858" y="-230.3" font-family="Times,serif" font-size="14.00" fill="#000000">rdfs:Class rdf:type rdfs:Class</text>
</g>
<!-- n7ed6f8c633aac1f708bfa8b5d07d4791 -->
<g id="node2" class="node">
<title>n7ed6f8c633aac1f708bfa8b5d07d4791</title>
<ellipse fill="none" stroke="#000000" cx="341.8858" cy="-162" rx="48.9926" ry="18"/>
<text text-anchor="start" x="312.3858" y="-158.3" font-family="Times,serif" font-size="14.00" fill="#000000">[rdfs(3)]</text>
</g>
<!-- n04e222f549be40fcccfdb65a1b9ecf79&#45;&gt;n7ed6f8c633aac1f708bfa8b5d07d4791 -->
<g id="edge1" class="edge">
<title>n04e222f549be40fcccfdb65a1b9ecf79&#45;&gt;n7ed6f8c633aac1f708bfa8b5d07d4791</title>
<path fill="none" stroke="#000000" d="M341.8858,-215.8314C341.8858,-208.131 341.8858,-198.9743 341.8858,-190.4166"/>
<polygon fill="#000000" stroke="#000000" points="345.3859,-190.4132 341.8858,-180.4133 338.3859,-190.4133 345.3859,-190.4132"/>
</g>
<!-- nfb784f17bfebeaf3c3aa7f3425c54fb3 -->
<g id="node3" class="node">
<title>nfb784f17bfebeaf3c3aa7f3425c54fb3</title>
<ellipse fill="none" stroke="#000000" cx="159.8858" cy="-90" rx="159.7717" ry="18"/>
<text text-anchor="start" x="44.8858" y="-86.3" font-family="Times,serif" font-size="14.00" fill="#000000">rdfs:range rdfs:range rdfs:Class</text>
</g>
<!-- n7ed6f8c633aac1f708bfa8b5d07d4791&#45;&gt;nfb784f17bfebeaf3c3aa7f3425c54fb3 -->
<g id="edge2" class="edge">
<title>n7ed6f8c633aac1f708bfa8b5d07d4791&#45;&gt;nfb784f17bfebeaf3c3aa7f3425c54fb3</title>
<path fill="none" stroke="#000000" d="M308.5042,-148.7941C281.8132,-138.235 243.8876,-123.2315 213.0296,-111.0239"/>
<polygon fill="#000000" stroke="#000000" points="214.2864,-107.7572 203.7001,-107.3331 211.7113,-114.2664 214.2864,-107.7572"/>
</g>
<!-- n1a0fd0474e74065a3ff5ea4d5b184a47 -->
<g id="node5" class="node">
<title>n1a0fd0474e74065a3ff5ea4d5b184a47</title>
<ellipse fill="none" stroke="#000000" cx="523.8858" cy="-90" rx="186.5669" ry="18"/>
<text text-anchor="start" x="388.3858" y="-86.3" font-family="Times,serif" font-size="14.00" fill="#000000">rdfs:subClassOf rdfs:range rdfs:Class</text>
</g>
<!-- n7ed6f8c633aac1f708bfa8b5d07d4791&#45;&gt;n1a0fd0474e74065a3ff5ea4d5b184a47 -->
<g id="edge4" class="edge">
<title>n7ed6f8c633aac1f708bfa8b5d07d4791&#45;&gt;n1a0fd0474e74065a3ff5ea4d5b184a47</title>
<path fill="none" stroke="#000000" d="M375.2674,-148.7941C401.7725,-138.3086 439.356,-123.4404 470.0959,-111.2795"/>
<polygon fill="#000000" stroke="#000000" points="471.3851,-114.5335 479.3964,-107.6002 468.81,-108.0244 471.3851,-114.5335"/>
</g>
<!-- n033343b041db157c4f79402ecc57bf34 -->
<g id="node4" class="node">
<title>n033343b041db157c4f79402ecc57bf34</title>
<ellipse fill="none" stroke="#000000" cx="159.8858" cy="-18" rx="70.6878" ry="18"/>
<text text-anchor="start" x="113.3858" y="-14.3" font-family="Times,serif" font-size="14.00" fill="#000000">[axiom(rdfs)]</text>
</g>
<!-- nfb784f17bfebeaf3c3aa7f3425c54fb3&#45;&gt;n033343b041db157c4f79402ecc57bf34 -->
<g id="edge3" class="edge">
<title>nfb784f17bfebeaf3c3aa7f3425c54fb3&#45;&gt;n033343b041db157c4f79402ecc57bf34</title>
<path fill="none" stroke="#000000" d="M159.8858,-71.8314C159.8858,-64.131 159.8858,-54.9743 159.8858,-46.4166"/>
<polygon fill="#000000" stroke="#000000" points="163.3859,-46.4132 159.8858,-36.4133 156.3859,-46.4133 163.3859,-46.4132"/>
</g>
<!-- n39113b59bd2862e9efd1bcdea12eddbf -->
<g id="node6" class="node">
<title>n39113b59bd2862e9efd1bcdea12eddbf</title>
<ellipse fill="none" stroke="#000000" cx="523.8858" cy="-18" rx="70.6878" ry="18"/>
<text text-anchor="start" x="477.3858" y="-14.3" font-family="Times,serif" font-size="14.00" fill="#000000">[axiom(rdfs)]</text>
</g>
<!-- n1a0fd0474e74065a3ff5ea4d5b184a47&#45;&gt;n39113b59bd2862e9efd1bcdea12eddbf -->
<g id="edge5" class="edge">
<title>n1a0fd0474e74065a3ff5ea4d5b184a47&#45;&gt;n39113b59bd2862e9efd1bcdea12eddbf</title>
<path fill="none" stroke="#000000" d="M523.8858,-71.8314C523.8858,-64.131 523.8858,-54.9743 523.8858,-46.4166"/>
<polygon fill="#000000" stroke="#000000" points="527.3859,-46.4132 523.8858,-36.4133 520.3859,-46.4133 527.3859,-46.4132"/>
</g>
</g>
</svg>
