<?xml version="1.0" encoding="UTF-8" standalone="no"?>
<!DOCTYPE svg PUBLIC "-//W3C//DTD SVG 1.1//EN"
 "http://www.w3.org/Graphics/SVG/1.1/DTD/svg11.dtd">
<!-- Generated by graphviz version 2.40.1 (20161225.0304)
 -->
<!-- Title: g Pages: 1 -->
<svg width="826pt" height="404pt"
 viewBox="0.00 0.00 826.36 404.00" xmlns="http://www.w3.org/2000/svg" xmlns:xlink="http://www.w3.org/1999/xlink">
<g id="graph0" class="graph" transform="scale(1 1) rotate(0) translate(4 400)">
<title>g</title>
<polygon fill="#ffffff" stroke="transparent" points="-4,4 -4,-400 822.3645,-400 822.3645,4 -4,4"/>
<!-- n9b6375da0f06fb3a676677789417b667 -->
<g id="node1" class="node">
<title>n9b6375da0f06fb3a676677789417b667</title>
<ellipse fill="none" stroke="#000000" cx="289.2313" cy="-378" rx="147.5738" ry="18"/>
<text text-anchor="start" x="183.7313" y="-374.3" font-family="Times,serif" font-size="14.00" fill="#000000">ex:markus rdf:type ex:Person</text>
</g>
<!-- nfe89c255686411adfbfb5db608b95ed6 -->
<g id="node2" class="node">
<title>nfe89c255686411adfbfb5db608b95ed6</title>
<ellipse fill="none" stroke="#000000" cx="289.2313" cy="-306" rx="48.9926" ry="18"/>
<text text-anchor="start" x="259.7313" y="-302.3" font-family="Times,serif" font-size="14.00" fill="#000000">[rdfs(2)]</text>
</g>
<!-- n9b6375da0f06fb3a676677789417b667&#45;&gt;nfe89c255686411adfbfb5db608b95ed6 -->
<g id="edge1" class="edge">
<title>n9b6375da0f06fb3a676677789417b667&#45;&gt;nfe89c255686411adfbfb5db608b95ed6</title>
<path fill="none" stroke="#000000" d="M289.2313,-359.8314C289.2313,-352.131 289.2313,-342.9743 289.2313,-334.4166"/>
<polygon fill="#000000" stroke="#000000" points="292.7314,-334.4132 289.2313,-324.4133 285.7314,-334.4133 292.7314,-334.4132"/>
</g>
<!-- n3121a1f0848bffeafcfef31951581b46 -->
<g id="node3" class="node">
<title>n3121a1f0848bffeafcfef31951581b46</title>
<ellipse fill="none" stroke="#000000" cx="158.2313" cy="-234" rx="131.077" ry="18"/>
<text text-anchor="start" x="65.2313" y="-230.3" font-family="Times,serif" font-size="14.00" fill="#000000">_:1 rdfs:domain ex:Person</text>
</g>
<!-- nfe89c255686411adfbfb5db608b95ed6&#45;&gt;n3121a1f0848bffeafcfef31951581b46 -->
<g id="edge2" class="edge">
<title>nfe89c255686411adfbfb5db608b95ed6&#45;&gt;n3121a1f0848bffeafcfef31951581b46</title>
<path fill="none" stroke="#000000" d="M261.7694,-290.9064C243.6007,-280.9206 219.4566,-267.6506 199.0539,-256.4369"/>
<polygon fill="#000000" stroke="#000000" points="200.723,-253.3604 190.2735,-251.611 197.3513,-259.4949 200.723,-253.3604"/>
</g>
<!-- n483ab5df11fe2b281d95979b333c8898 -->
<g id="node5" class="node">
<title>n483ab5df11fe2b281d95979b333c8898</title>
<ellipse fill="none" stroke="#000000" cx="420.2313" cy="-234" rx="112.3801" ry="18"/>
<text text-anchor="start" x="341.7313" y="-230.3" font-family="Times,serif" font-size="14.00" fill="#000000">ex:markus _:1 ex:anja</text>
</g>
<!-- nfe89c255686411adfbfb5db608b95ed6&#45;&gt;n483ab5df11fe2b281d95979b333c8898 -->
<g id="edge4" class="edge">
<title>nfe89c255686411adfbfb5db608b95ed6&#45;&gt;n483ab5df11fe2b281d95979b333c8898</title>
<path fill="none" stroke="#000000" d="M316.6932,-290.9064C334.9925,-280.8488 359.3536,-267.4594 379.8484,-256.1952"/>
<polygon fill="#000000" stroke="#000000" points="381.583,-259.2357 388.6607,-251.3517 378.2113,-253.1012 381.583,-259.2357"/>
</g>
<!-- n961996d3e0b789c76c57ee4fa2236509 -->
<g id="node4" class="node">
<title>n961996d3e0b789c76c57ee4fa2236509</title>
<ellipse fill="none" stroke="#000000" cx="158.2313" cy="-162" rx="68.7879" ry="18"/>
<text text-anchor="start" x="113.2313" y="-158.3" font-family="Times,serif" font-size="14.00" fill="#000000">[db(default)]</text>
</g>
<!-- n3121a1f0848bffeafcfef31951581b46&#45;&gt;n961996d3e0b789c76c57ee4fa2236509 -->
<g id="edge3" class="edge">
<title>n3121a1f0848bffeafcfef31951581b46&#45;&gt;n961996d3e0b789c76c57ee4fa2236509</title>
<path fill="none" stroke="#000000" d="M158.2313,-215.8314C158.2313,-208.131 158.2313,-198.9743 158.2313,-190.4166"/>
<polygon fill="#000000" stroke="#000000" points="161.7314,-190.4132 158.2313,-180.4133 154.7314,-190.4133 161.7314,-190.4132"/>
</g>
<!-- nfaa0c4eb1e344c33398d20983630f904 -->
<g id="node6" class="node">
<title>nfaa0c4eb1e344c33398d20983630f904</title>
<ellipse fill="none" stroke="#000000" cx="420.2313" cy="-162" rx="48.9926" ry="18"/>
<text text-anchor="start" x="390.7313" y="-158.3" font-family="Times,serif" font-size="14.00" fill="#000000">[rdfs(7)]</text>
</g>
<!-- n483ab5df11fe2b281d95979b333c8898&#45;&gt;nfaa0c4eb1e344c33398d20983630f904 -->
<g id="edge5" class="edge">
<title>n483ab5df11fe2b281d95979b333c8898&#45;&gt;nfaa0c4eb1e344c33398d20983630f904</title>
<path fill="none" stroke="#000000" d="M420.2313,-215.8314C420.2313,-208.131 420.2313,-198.9743 420.2313,-190.4166"/>
<polygon fill="#000000" stroke="#000000" points="423.7314,-190.4132 420.2313,-180.4133 416.7314,-190.4133 423.7314,-190.4132"/>
</g>
<!-- n4bdac03942ef78f98606143f7e3a44c4 -->
<g id="node7" class="node">
<title>n4bdac03942ef78f98606143f7e3a44c4</title>
<ellipse fill="none" stroke="#000000" cx="211.2313" cy="-90" rx="211.4628" ry="18"/>
<text text-anchor="start" x="56.7313" y="-86.3" font-family="Times,serif" font-size="14.00" fill="#000000">ex:happyMarriedTo rdfs:subPropertyOf _:1</text>
</g>
<!-- nfaa0c4eb1e344c33398d20983630f904&#45;&gt;n4bdac03942ef78f98606143f7e3a44c4 -->
<g id="edge6" class="edge">
<title>nfaa0c4eb1e344c33398d20983630f904&#45;&gt;n4bdac03942ef78f98606143f7e3a44c4</title>
<path fill="none" stroke="#000000" d="M384.3029,-149.6228C353.4473,-138.9931 308.3115,-123.4439 271.8698,-110.8898"/>
<polygon fill="#000000" stroke="#000000" points="272.9197,-107.5497 262.325,-107.6017 270.6397,-114.168 272.9197,-107.5497"/>
</g>
<!-- n837eb1e25225ade6d676a0c0f9440516 -->
<g id="node9" class="node">
<title>n837eb1e25225ade6d676a0c0f9440516</title>
<ellipse fill="none" stroke="#000000" cx="629.2313" cy="-90" rx="189.2665" ry="18"/>
<text text-anchor="start" x="491.7313" y="-86.3" font-family="Times,serif" font-size="14.00" fill="#000000">ex:markus ex:happyMarriedTo ex:anja</text>
</g>
<!-- nfaa0c4eb1e344c33398d20983630f904&#45;&gt;n837eb1e25225ade6d676a0c0f9440516 -->
<g id="edge8" class="edge">
<title>nfaa0c4eb1e344c33398d20983630f904&#45;&gt;n837eb1e25225ade6d676a0c0f9440516</title>
<path fill="none" stroke="#000000" d="M456.1596,-149.6228C487.1223,-138.9562 532.4646,-123.3359 568.972,-110.7592"/>
<polygon fill="#000000" stroke="#000000" points="570.2162,-114.0325 578.5309,-107.4662 567.9362,-107.4142 570.2162,-114.0325"/>
</g>
<!-- nfd5a05f42d8098fbbb69fe4e50c30140 -->
<g id="node8" class="node">
<title>nfd5a05f42d8098fbbb69fe4e50c30140</title>
<ellipse fill="none" stroke="#000000" cx="211.2313" cy="-18" rx="68.7879" ry="18"/>
<text text-anchor="start" x="166.2313" y="-14.3" font-family="Times,serif" font-size="14.00" fill="#000000">[db(default)]</text>
</g>
<!-- n4bdac03942ef78f98606143f7e3a44c4&#45;&gt;nfd5a05f42d8098fbbb69fe4e50c30140 -->
<g id="edge7" class="edge">
<title>n4bdac03942ef78f98606143f7e3a44c4&#45;&gt;nfd5a05f42d8098fbbb69fe4e50c30140</title>
<path fill="none" stroke="#000000" d="M211.2313,-71.8314C211.2313,-64.131 211.2313,-54.9743 211.2313,-46.4166"/>
<polygon fill="#000000" stroke="#000000" points="214.7314,-46.4132 211.2313,-36.4133 207.7314,-46.4133 214.7314,-46.4132"/>
</g>
<!-- nf47f0979174e43e1ea214cb85c3c380b -->
<g id="node10" class="node">
<title>nf47f0979174e43e1ea214cb85c3c380b</title>
<ellipse fill="none" stroke="#000000" cx="629.2313" cy="-18" rx="68.7879" ry="18"/>
<text text-anchor="start" x="584.2313" y="-14.3" font-family="Times,serif" font-size="14.00" fill="#000000">[db(default)]</text>
</g>
<!-- n837eb1e25225ade6d676a0c0f9440516&#45;&gt;nf47f0979174e43e1ea214cb85c3c380b -->
<g id="edge9" class="edge">
<title>n837eb1e25225ade6d676a0c0f9440516&#45;&gt;nf47f0979174e43e1ea214cb85c3c380b</title>
<path fill="none" stroke="#000000" d="M629.2313,-71.8314C629.2313,-64.131 629.2313,-54.9743 629.2313,-46.4166"/>
<polygon fill="#000000" stroke="#000000" points="632.7314,-46.4132 629.2313,-36.4133 625.7314,-46.4133 632.7314,-46.4132"/>
</g>
</g>
</svg>
