<?xml version="1.0" encoding="UTF-8" standalone="no"?>
<!DOCTYPE svg PUBLIC "-//W3C//DTD SVG 1.1//EN"
 "http://www.w3.org/Graphics/SVG/1.1/DTD/svg11.dtd">
<!-- Generated by graphviz version 2.40.1 (20161225.0304)
 -->
<!-- Title: g Pages: 1 -->
<svg width="351pt" height="260pt"
 viewBox="0.00 0.00 351.17 260.00" xmlns="http://www.w3.org/2000/svg" xmlns:xlink="http://www.w3.org/1999/xlink">
<g id="graph0" class="graph" transform="scale(1 1) rotate(0) translate(4 256)">
<title>g</title>
<polygon fill="#ffffff" stroke="transparent" points="-4,4 -4,-256 347.1696,-256 347.1696,4 -4,4"/>
<!-- nc544f734258da8bbdc20146a102605b0 -->
<g id="node1" class="node">
<title>nc544f734258da8bbdc20146a102605b0</title>
<ellipse fill="none" stroke="#000000" cx="171.5848" cy="-234" rx="171.6696" ry="18"/>
<text text-anchor="start" x="47.5848" y="-230.3" font-family="Times,serif" font-size="14.00" fill="#000000">&quot;&quot;^^xsd:string rdf:type xsd:string</text>
</g>
<!-- ncd199cae6a2d8fc6bd6f6a22829ebb8f -->
<g id="node2" class="node">
<title>ncd199cae6a2d8fc6bd6f6a22829ebb8f</title>
<ellipse fill="none" stroke="#000000" cx="171.5848" cy="-162" rx="44.393" ry="18"/>
<text text-anchor="start" x="145.5848" y="-158.3" font-family="Times,serif" font-size="14.00" fill="#000000">[rdf(1)]</text>
</g>
<!-- nc544f734258da8bbdc20146a102605b0&#45;&gt;ncd199cae6a2d8fc6bd6f6a22829ebb8f -->
<g id="edge1" class="edge">
<title>nc544f734258da8bbdc20146a102605b0&#45;&gt;ncd199cae6a2d8fc6bd6f6a22829ebb8f</title>
<path fill="none" stroke="#000000" d="M171.5848,-215.8314C171.5848,-208.131 171.5848,-198.9743 171.5848,-190.4166"/>
<polygon fill="#000000" stroke="#000000" points="175.0849,-190.4132 171.5848,-180.4133 168.0849,-190.4133 175.0849,-190.4132"/>
</g>
<!-- ne7bdc5bac1814e3aa5d709f2b49e46b8 -->
<g id="node3" class="node">
<title>ne7bdc5bac1814e3aa5d709f2b49e46b8</title>
<ellipse fill="none" stroke="#000000" cx="171.5848" cy="-90" rx="131.8766" ry="18"/>
<text text-anchor="start" x="78.0848" y="-86.3" font-family="Times,serif" font-size="14.00" fill="#000000">rdf:s rdf:p &quot;&quot;^^xsd:string</text>
</g>
<!-- ncd199cae6a2d8fc6bd6f6a22829ebb8f&#45;&gt;ne7bdc5bac1814e3aa5d709f2b49e46b8 -->
<g id="edge2" class="edge">
<title>ncd199cae6a2d8fc6bd6f6a22829ebb8f&#45;&gt;ne7bdc5bac1814e3aa5d709f2b49e46b8</title>
<path fill="none" stroke="#000000" d="M171.5848,-143.8314C171.5848,-136.131 171.5848,-126.9743 171.5848,-118.4166"/>
<polygon fill="#000000" stroke="#000000" points="175.0849,-118.4132 171.5848,-108.4133 168.0849,-118.4133 175.0849,-118.4132"/>
</g>
<!-- n43e3e31ffb2142f681f532f0af5f3af3 -->
<g id="node4" class="node">
<title>n43e3e31ffb2142f681f532f0af5f3af3</title>
<ellipse fill="none" stroke="#000000" cx="171.5848" cy="-18" rx="68.7879" ry="18"/>
<text text-anchor="start" x="126.5848" y="-14.3" font-family="Times,serif" font-size="14.00" fill="#000000">[db(default)]</text>
</g>
<!-- ne7bdc5bac1814e3aa5d709f2b49e46b8&#45;&gt;n43e3e31ffb2142f681f532f0af5f3af3 -->
<g id="edge3" class="edge">
<title>ne7bdc5bac1814e3aa5d709f2b49e46b8&#45;&gt;n43e3e31ffb2142f681f532f0af5f3af3</title>
<path fill="none" stroke="#000000" d="M171.5848,-71.8314C171.5848,-64.131 171.5848,-54.9743 171.5848,-46.4166"/>
<polygon fill="#000000" stroke="#000000" points="175.0849,-46.4132 171.5848,-36.4133 168.0849,-46.4133 175.0849,-46.4132"/>
</g>
</g>
</svg>
