<?xml version="1.0" encoding="UTF-8" standalone="no"?>
<!DOCTYPE svg PUBLIC "-//W3C//DTD SVG 1.1//EN"
 "http://www.w3.org/Graphics/SVG/1.1/DTD/svg11.dtd">
<!-- Generated by graphviz version 2.40.1 (20161225.0304)
 -->
<!-- Title: g Pages: 1 -->
<svg width="388pt" height="260pt"
 viewBox="0.00 0.00 387.57 260.00" xmlns="http://www.w3.org/2000/svg" xmlns:xlink="http://www.w3.org/1999/xlink">
<g id="graph0" class="graph" transform="scale(1 1) rotate(0) translate(4 256)">
<title>g</title>
<polygon fill="#ffffff" stroke="transparent" points="-4,4 -4,-256 383.5663,-256 383.5663,4 -4,4"/>
<!-- n5e2754e66be8c0a351d2c5130e65b74d -->
<g id="node1" class="node">
<title>n5e2754e66be8c0a351d2c5130e65b74d</title>
<ellipse fill="none" stroke="#000000" cx="189.7832" cy="-234" rx="189.5666" ry="18"/>
<text text-anchor="start" x="51.7832" y="-230.3" font-family="Times,serif" font-size="14.00" fill="#000000">&quot;&quot;^^xsd:string rdf:type rdfs:Resource</text>
</g>
<!-- n5e792f087d42a307d01683b817fac1c8 -->
<g id="node2" class="node">
<title>n5e792f087d42a307d01683b817fac1c8</title>
<ellipse fill="none" stroke="#000000" cx="189.7832" cy="-162" rx="54.6905" ry="18"/>
<text text-anchor="start" x="155.7832" y="-158.3" font-family="Times,serif" font-size="14.00" fill="#000000">[rdfs(4b)]</text>
</g>
<!-- n5e2754e66be8c0a351d2c5130e65b74d&#45;&gt;n5e792f087d42a307d01683b817fac1c8 -->
<g id="edge1" class="edge">
<title>n5e2754e66be8c0a351d2c5130e65b74d&#45;&gt;n5e792f087d42a307d01683b817fac1c8</title>
<path fill="none" stroke="#000000" d="M189.7832,-215.8314C189.7832,-208.131 189.7832,-198.9743 189.7832,-190.4166"/>
<polygon fill="#000000" stroke="#000000" points="193.2833,-190.4132 189.7832,-180.4133 186.2833,-190.4133 193.2833,-190.4132"/>
</g>
<!-- ne7bdc5bac1814e3aa5d709f2b49e46b8 -->
<g id="node3" class="node">
<title>ne7bdc5bac1814e3aa5d709f2b49e46b8</title>
<ellipse fill="none" stroke="#000000" cx="189.7832" cy="-90" rx="131.8766" ry="18"/>
<text text-anchor="start" x="96.2832" y="-86.3" font-family="Times,serif" font-size="14.00" fill="#000000">rdf:s rdf:p &quot;&quot;^^xsd:string</text>
</g>
<!-- n5e792f087d42a307d01683b817fac1c8&#45;&gt;ne7bdc5bac1814e3aa5d709f2b49e46b8 -->
<g id="edge2" class="edge">
<title>n5e792f087d42a307d01683b817fac1c8&#45;&gt;ne7bdc5bac1814e3aa5d709f2b49e46b8</title>
<path fill="none" stroke="#000000" d="M189.7832,-143.8314C189.7832,-136.131 189.7832,-126.9743 189.7832,-118.4166"/>
<polygon fill="#000000" stroke="#000000" points="193.2833,-118.4132 189.7832,-108.4133 186.2833,-118.4133 193.2833,-118.4132"/>
</g>
<!-- n43e3e31ffb2142f681f532f0af5f3af3 -->
<g id="node4" class="node">
<title>n43e3e31ffb2142f681f532f0af5f3af3</title>
<ellipse fill="none" stroke="#000000" cx="189.7832" cy="-18" rx="68.7879" ry="18"/>
<text text-anchor="start" x="144.7832" y="-14.3" font-family="Times,serif" font-size="14.00" fill="#000000">[db(default)]</text>
</g>
<!-- ne7bdc5bac1814e3aa5d709f2b49e46b8&#45;&gt;n43e3e31ffb2142f681f532f0af5f3af3 -->
<g id="edge3" class="edge">
<title>ne7bdc5bac1814e3aa5d709f2b49e46b8&#45;&gt;n43e3e31ffb2142f681f532f0af5f3af3</title>
<path fill="none" stroke="#000000" d="M189.7832,-71.8314C189.7832,-64.131 189.7832,-54.9743 189.7832,-46.4166"/>
<polygon fill="#000000" stroke="#000000" points="193.2833,-46.4132 189.7832,-36.4133 186.2833,-46.4133 193.2833,-46.4132"/>
</g>
</g>
</svg>
