<?xml version="1.0" encoding="UTF-8" standalone="no"?>
<!DOCTYPE svg PUBLIC "-//W3C//DTD SVG 1.1//EN"
 "http://www.w3.org/Graphics/SVG/1.1/DTD/svg11.dtd">
<!-- Generated by graphviz version 2.40.1 (20161225.0304)
 -->
<!-- Title: g Pages: 1 -->
<svg width="750pt" height="404pt"
 viewBox="0.00 0.00 750.02 404.00" xmlns="http://www.w3.org/2000/svg" xmlns:xlink="http://www.w3.org/1999/xlink">
<g id="graph0" class="graph" transform="scale(1 1) rotate(0) translate(4 400)">
<title>g</title>
<polygon fill="#ffffff" stroke="transparent" points="-4,4 -4,-400 746.0179,-400 746.0179,4 -4,4"/>
<!-- n47e961e7a0ff5f885abfae8d09c79670 -->
<g id="node1" class="node">
<title>n47e961e7a0ff5f885abfae8d09c79670</title>
<ellipse fill="none" stroke="#000000" cx="380.4331" cy="-378" rx="177.3685" ry="18"/>
<text text-anchor="start" x="251.9331" y="-374.3" font-family="Times,serif" font-size="14.00" fill="#000000">&quot;&quot;^^xsd:string rdf:type rdfs:Literal</text>
</g>
<!-- nf607e3512aa052d60401571a25985470 -->
<g id="node2" class="node">
<title>nf607e3512aa052d60401571a25985470</title>
<ellipse fill="none" stroke="#000000" cx="380.4331" cy="-306" rx="48.9926" ry="18"/>
<text text-anchor="start" x="350.9331" y="-302.3" font-family="Times,serif" font-size="14.00" fill="#000000">[rdfs(9)]</text>
</g>
<!-- n47e961e7a0ff5f885abfae8d09c79670&#45;&gt;nf607e3512aa052d60401571a25985470 -->
<g id="edge1" class="edge">
<title>n47e961e7a0ff5f885abfae8d09c79670&#45;&gt;nf607e3512aa052d60401571a25985470</title>
<path fill="none" stroke="#000000" d="M380.4331,-359.8314C380.4331,-352.131 380.4331,-342.9743 380.4331,-334.4166"/>
<polygon fill="#000000" stroke="#000000" points="383.9332,-334.4132 380.4331,-324.4133 376.9332,-334.4133 383.9332,-334.4132"/>
</g>
<!-- n4d07c57c238429327be2c67409ef0c1b -->
<g id="node3" class="node">
<title>n4d07c57c238429327be2c67409ef0c1b</title>
<ellipse fill="none" stroke="#000000" cx="190.4331" cy="-234" rx="190.3662" ry="18"/>
<text text-anchor="start" x="51.9331" y="-230.3" font-family="Times,serif" font-size="14.00" fill="#000000">xsd:string rdfs:subClassOf rdfs:Literal</text>
</g>
<!-- nf607e3512aa052d60401571a25985470&#45;&gt;n4d07c57c238429327be2c67409ef0c1b -->
<g id="edge2" class="edge">
<title>nf607e3512aa052d60401571a25985470&#45;&gt;n4d07c57c238429327be2c67409ef0c1b</title>
<path fill="none" stroke="#000000" d="M346.0255,-292.9613C318.3083,-282.458 278.7806,-267.4791 246.5029,-255.2475"/>
<polygon fill="#000000" stroke="#000000" points="247.3309,-251.8185 236.7396,-251.5477 244.8504,-258.3642 247.3309,-251.8185"/>
</g>
<!-- nc544f734258da8bbdc20146a102605b0 -->
<g id="node7" class="node">
<title>nc544f734258da8bbdc20146a102605b0</title>
<ellipse fill="none" stroke="#000000" cx="570.4331" cy="-234" rx="171.6696" ry="18"/>
<text text-anchor="start" x="446.4331" y="-230.3" font-family="Times,serif" font-size="14.00" fill="#000000">&quot;&quot;^^xsd:string rdf:type xsd:string</text>
</g>
<!-- nf607e3512aa052d60401571a25985470&#45;&gt;nc544f734258da8bbdc20146a102605b0 -->
<g id="edge6" class="edge">
<title>nf607e3512aa052d60401571a25985470&#45;&gt;nc544f734258da8bbdc20146a102605b0</title>
<path fill="none" stroke="#000000" d="M414.8407,-292.9613C442.7747,-282.3758 482.7047,-267.2444 515.1194,-254.961"/>
<polygon fill="#000000" stroke="#000000" points="516.3693,-258.2303 524.4801,-251.4138 513.8887,-251.6845 516.3693,-258.2303"/>
</g>
<!-- n5898981481ffa755ad3c362841fde1a2 -->
<g id="node4" class="node">
<title>n5898981481ffa755ad3c362841fde1a2</title>
<ellipse fill="none" stroke="#000000" cx="190.4331" cy="-162" rx="54.6905" ry="18"/>
<text text-anchor="start" x="156.4331" y="-158.3" font-family="Times,serif" font-size="14.00" fill="#000000">[rdfs(13)]</text>
</g>
<!-- n4d07c57c238429327be2c67409ef0c1b&#45;&gt;n5898981481ffa755ad3c362841fde1a2 -->
<g id="edge3" class="edge">
<title>n4d07c57c238429327be2c67409ef0c1b&#45;&gt;n5898981481ffa755ad3c362841fde1a2</title>
<path fill="none" stroke="#000000" d="M190.4331,-215.8314C190.4331,-208.131 190.4331,-198.9743 190.4331,-190.4166"/>
<polygon fill="#000000" stroke="#000000" points="193.9332,-190.4132 190.4331,-180.4133 186.9332,-190.4133 193.9332,-190.4132"/>
</g>
<!-- n0d99e9054d3c7d70c48a087122fad471 -->
<g id="node5" class="node">
<title>n0d99e9054d3c7d70c48a087122fad471</title>
<ellipse fill="none" stroke="#000000" cx="190.4331" cy="-90" rx="164.3708" ry="18"/>
<text text-anchor="start" x="71.9331" y="-86.3" font-family="Times,serif" font-size="14.00" fill="#000000">xsd:string rdf:type rdfs:Datatype</text>
</g>
<!-- n5898981481ffa755ad3c362841fde1a2&#45;&gt;n0d99e9054d3c7d70c48a087122fad471 -->
<g id="edge4" class="edge">
<title>n5898981481ffa755ad3c362841fde1a2&#45;&gt;n0d99e9054d3c7d70c48a087122fad471</title>
<path fill="none" stroke="#000000" d="M190.4331,-143.8314C190.4331,-136.131 190.4331,-126.9743 190.4331,-118.4166"/>
<polygon fill="#000000" stroke="#000000" points="193.9332,-118.4132 190.4331,-108.4133 186.9332,-118.4133 193.9332,-118.4132"/>
</g>
<!-- na96f717a11dacc9960a57a327662c015 -->
<g id="node6" class="node">
<title>na96f717a11dacc9960a57a327662c015</title>
<ellipse fill="none" stroke="#000000" cx="190.4331" cy="-18" rx="48.9926" ry="18"/>
<text text-anchor="start" x="160.9331" y="-14.3" font-family="Times,serif" font-size="14.00" fill="#000000">[rdfs(1)]</text>
</g>
<!-- n0d99e9054d3c7d70c48a087122fad471&#45;&gt;na96f717a11dacc9960a57a327662c015 -->
<g id="edge5" class="edge">
<title>n0d99e9054d3c7d70c48a087122fad471&#45;&gt;na96f717a11dacc9960a57a327662c015</title>
<path fill="none" stroke="#000000" d="M190.4331,-71.8314C190.4331,-64.131 190.4331,-54.9743 190.4331,-46.4166"/>
<polygon fill="#000000" stroke="#000000" points="193.9332,-46.4132 190.4331,-36.4133 186.9332,-46.4133 193.9332,-46.4132"/>
</g>
<!-- ncd199cae6a2d8fc6bd6f6a22829ebb8f -->
<g id="node8" class="node">
<title>ncd199cae6a2d8fc6bd6f6a22829ebb8f</title>
<ellipse fill="none" stroke="#000000" cx="570.4331" cy="-162" rx="44.393" ry="18"/>
<text text-anchor="start" x="544.4331" y="-158.3" font-family="Times,serif" font-size="14.00" fill="#000000">[rdf(1)]</text>
</g>
<!-- nc544f734258da8bbdc20146a102605b0&#45;&gt;ncd199cae6a2d8fc6bd6f6a22829ebb8f -->
<g id="edge7" class="edge">
<title>nc544f734258da8bbdc20146a102605b0&#45;&gt;ncd199cae6a2d8fc6bd6f6a22829ebb8f</title>
<path fill="none" stroke="#000000" d="M570.4331,-215.8314C570.4331,-208.131 570.4331,-198.9743 570.4331,-190.4166"/>
<polygon fill="#000000" stroke="#000000" points="573.9332,-190.4132 570.4331,-180.4133 566.9332,-190.4133 573.9332,-190.4132"/>
</g>
<!-- ne7bdc5bac1814e3aa5d709f2b49e46b8 -->
<g id="node9" class="node">
<title>ne7bdc5bac1814e3aa5d709f2b49e46b8</title>
<ellipse fill="none" stroke="#000000" cx="570.4331" cy="-90" rx="131.8766" ry="18"/>
<text text-anchor="start" x="476.9331" y="-86.3" font-family="Times,serif" font-size="14.00" fill="#000000">rdf:s rdf:p &quot;&quot;^^xsd:string</text>
</g>
<!-- ncd199cae6a2d8fc6bd6f6a22829ebb8f&#45;&gt;ne7bdc5bac1814e3aa5d709f2b49e46b8 -->
<g id="edge8" class="edge">
<title>ncd199cae6a2d8fc6bd6f6a22829ebb8f&#45;&gt;ne7bdc5bac1814e3aa5d709f2b49e46b8</title>
<path fill="none" stroke="#000000" d="M570.4331,-143.8314C570.4331,-136.131 570.4331,-126.9743 570.4331,-118.4166"/>
<polygon fill="#000000" stroke="#000000" points="573.9332,-118.4132 570.4331,-108.4133 566.9332,-118.4133 573.9332,-118.4132"/>
</g>
<!-- n43e3e31ffb2142f681f532f0af5f3af3 -->
<g id="node10" class="node">
<title>n43e3e31ffb2142f681f532f0af5f3af3</title>
<ellipse fill="none" stroke="#000000" cx="570.4331" cy="-18" rx="68.7879" ry="18"/>
<text text-anchor="start" x="525.4331" y="-14.3" font-family="Times,serif" font-size="14.00" fill="#000000">[db(default)]</text>
</g>
<!-- ne7bdc5bac1814e3aa5d709f2b49e46b8&#45;&gt;n43e3e31ffb2142f681f532f0af5f3af3 -->
<g id="edge9" class="edge">
<title>ne7bdc5bac1814e3aa5d709f2b49e46b8&#45;&gt;n43e3e31ffb2142f681f532f0af5f3af3</title>
<path fill="none" stroke="#000000" d="M570.4331,-71.8314C570.4331,-64.131 570.4331,-54.9743 570.4331,-46.4166"/>
<polygon fill="#000000" stroke="#000000" points="573.9332,-46.4132 570.4331,-36.4133 566.9332,-46.4133 573.9332,-46.4132"/>
</g>
</g>
</svg>
